<svg viewBox="0 0 45 49.448" xmlns="http://www.w3.org/2000/svg" width="45" height="49.448">
  <path
    d="M23.651 1.988v.105l.141-.013c.213.016.28.08.435.222.179.155.349.199.576.262.105.105.105.105.157.209l.144.02c.198.038.286.105.432.242l.052.105.173.033c.335.073.598.294.873.49l.157.105v.105l.083-.038c.192-.021.315.081.469.182l.091.057c.15.096.28.193.402.322q.134.065.271.121c.198.084.38.188.566.298v.105l.141.046c.267.091.492.193.729.347l.149.096.291.19v.105l.093-.033c.146-.024.184.003.303.088l.103.071.106.076.21.147.093.067c.094.064.094.064.244.107v.157l.138-.011c.209.013.307.072.48.188l.151.099c.119.09.119.09.172.195l.124.023c.155.033.188.075.294.186l.095.023c.169.044.29.135.428.239v.105a5 5 0 0 0 .314.157l.105-.052a6 6 0 0 1 .363.226l.1.066.27.178.157.105v.105l.091-.033c.155-.025.208.014.337.099l.11.069c.089.073.089.073.142.23a1 1 0 0 0 .232.078c.227.061.227.061.343.235l.262.052c.127.064.245.136.366.209v.105c.125.052.244.101.376.131.095.028.095.028.2.132l.052.105.114.02c.188.042.308.127.461.242l.052.105.173.033c.331.074.613.28.873.491l.052.157.134-.014c.229.018.37.115.553.243.186.126.367.248.569.347l.078.082c.072.082.072.082.17.098.181.045.324.143.484.239v.105l.141.046.175.056.137.039c.139.073.183.147.262.279.167.233.39.425.595.624.105.105.105.105.18.239.073.143.073.143.239.18l.013.131c.033.156.068.249.141.386.11.208.163.405.213.634h.105c.099.481.119.947.118 1.438v1.609l-.001 1.39-.001 1.62-.001 2.89-.001 2.978v.174l-.001 3.193v1.129l-.001 1.375v.701l-.001.642v.232c0 .367-.001.725-.059 1.088h-.105l-.037.153a4.5 4.5 0 0 1-.434 1.155 2.4 2.4 0 0 0-.157.366l-.157.052-.052.157-.154.128c-.161.116-.161.116-.216.249-.071.136-.171.146-.311.199l-.052.157c-.114.056-.114.056-.262.105l-.173.059-.141.045v.105a1.4 1.4 0 0 1-.68.314l-.052.105-.209.105a34 34 0 0 0-.467.331c-.176.096-.277.106-.475.088l-.052.105c-.627.546-.627.546-1.001.599-.202.04-.272.144-.412.291-.137.065-.137.065-.262.105l-.157.052v.105a2.3 2.3 0 0 1-.376.131c-.107.021-.107.021-.199.131-.24.208-.411.314-.733.314v.157l-.137.042a3 3 0 0 0-.491.219l-.052.157c-.216.163-.216.163-.383.141l-.088-.036-.052.105c-.179.163-.289.259-.523.314a10 10 0 0 0-.209.209c-.157.052-.157.052-.314.052a1.5 1.5 0 0 0-.285.239c-.104.096-.211.132-.343.18-.107.045-.107.045-.17.131-.126.108-.243.113-.406.131v.105c-.115.088-.115.088-.268.186l-.151.098c-.162.084-.292.105-.471.134-.093.058-.093.058-.167.137-.157.144-.32.265-.497.383l-.145.096c-.133.064-.133.064-.255.048l-.087-.036-.052.105c-.339.288-.702.574-1.151.628l-.105.105c-.217.187-.412.277-.68.366l-.052.105-.095.02c-.122.025-.122.025-.21.129-.227.227-.505.414-.826.447l-.126-.024-.032.091c-.1.163-.239.242-.4.338l-.177.11a1.5 1.5 0 0 1-.49.142 7 7 0 0 0-.262.262c-.137.065-.137.065-.262.105l-.157.052v.105a8 8 0 0 1-.576.209v.105a1.3 1.3 0 0 1-.743.25 5 5 0 0 0-.487.067c-.585.091-1.165.035-1.753-.003v-.105l-.134.013c-.234-.017-.35-.097-.546-.222v-.105l-.141-.046-.171-.06-.147-.049-.115-.056-.052-.157-.111-.013a1.06 1.06 0 0 1-.543-.337c-.118-.103-.24-.104-.392-.121l-.052-.157-.114-.013c-.178-.047-.27-.131-.409-.249a3 3 0 0 0-.209-.105v-.105l-.083.038c-.192.021-.315-.081-.469-.182l-.091-.057a2.2 2.2 0 0 1-.402-.322h-.105l-.105-.157-.144-.023c-.204-.035-.322-.111-.484-.239v-.105l-.141-.046a3 3 0 0 1-.729-.347l-.149-.096-.292-.189v-.105l-.093.033c-.146.025-.184-.003-.303-.086l-.103-.071-.106-.076-.107-.074-.196-.137a2.4 2.4 0 0 0-.571-.313c-.511-.221-.511-.221-.615-.428-.132-.034-.132-.034-.262-.052v-.105l-.262-.105-.137-.049a.74.74 0 0 1-.281-.213c-.159-.138-.159-.138-.366-.157-.128-.061-.245-.136-.366-.209v-.105l-.111-.013a1.2 1.2 0 0 1-.464-.249v-.105l-.089.035c-.168.024-.232-.035-.369-.13l-.127-.086-.095-.078v-.105l-.147-.046c-.167-.058-.167-.058-.324-.163a3 3 0 0 0-.343-.154.7.7 0 0 1-.285-.213c-.188-.173-.272-.216-.523-.209a.65.65 0 0 1-.209-.262l-.114-.02a1 1 0 0 1-.54-.33c-.081-.083-.081-.083-.235-.095-.168-.028-.214-.051-.314-.183l-.052-.105-.114-.02c-.188-.042-.309-.125-.461-.242v-.105l-.091.033c-.155.025-.208-.014-.337-.099l-.11-.07c-.089-.074-.089-.074-.142-.231l-.118-.02c-.23-.052-.325-.095-.458-.294l-.114-.023c-.201-.04-.339-.133-.513-.239v-.105l-.141-.046-.175-.055-.141-.046c-.141-.069-.188-.143-.278-.268l-.105-.052c-.131-.065-.178-.143-.262-.262l-.108-.105a1.1 1.1 0 0 1-.206-.314q-.087-.138-.177-.275c-.249-.392-.421-.729-.502-1.19H2.25c-.099-.482-.12-.949-.118-1.439l-.001-.242v-.659l-.001-.713-.001-1.394V25.91l-.001-2.812q-.002-1.445-.001-2.89l-.001-1.621v-2.961a5.5 5.5 0 0 1 .177-1.444h.105l.033-.104c.154-.457.38-.856.647-1.257l.052-.105q.136-.118.278-.229a.9.9 0 0 0 .193-.295 5 5 0 0 1 .209-.105l.098-.108c.139-.127.242-.13.425-.154l.105-.105c.168-.146.314-.239.523-.314.132-.058.224-.117.337-.209.131-.102.241-.155.396-.209.107-.046.107-.046.173-.128a.8.8 0 0 1 .35-.186l.105.052.052-.105a5 5 0 0 1 .226-.186l.124-.098a.8.8 0 0 1 .331-.134c.091-.077.091-.077.157-.157l.105.052c.151-.052.224-.12.337-.235a.84.84 0 0 1 .396-.235l.157-.052v-.105c.24-.1.24-.1.37-.128.162-.047.273-.145.386-.268.17-.156.327-.18.553-.18v-.157l.147-.046a1 1 0 0 0 .422-.265 1.3 1.3 0 0 1 .373-.265c.121.016.121.016.209.052l.052-.105c.292-.266.292-.266.523-.314q.08-.077.157-.157c.14-.083.2-.105.366-.105.12-.08.225-.171.334-.265.147-.109.278-.152.451-.206l.105-.105.209-.105a6 6 0 0 0 .206-.154c.421-.318.421-.318.693-.34l.198-.027.042-.091c.095-.18.255-.265.422-.37l.099-.067c.246-.158.246-.158.389-.132l.094.032.052-.105c.339-.288.702-.574 1.151-.628l.105-.105c.437-.366.437-.366.68-.366l.052-.105.095-.02c.124-.025.124-.025.219-.137.113-.113.164-.123.314-.157l.075-.075a.73.73 0 0 1 .343-.186l.105.052.052-.105.157-.105.114-.095c.463-.36.463-.36.733-.402.201-.036.271-.142.409-.288.137-.065.137-.065.262-.105l.157-.052v-.105q.338-.136.68-.262v-.105c.195-.149.334-.174.576-.157v-.105a18 18 0 0 1 2.302 0M2.302 14.39l.052.209zm-.052.209v.366h.052v-.366zm40.448.052v.419h.052v-.419zm-40.5.419v19.36h.052V15.07zm.052 19.36v.366h.052v-.366z"
    fill="#9E73D8" />
  <path
    d="M42.174 13.343c.251.323.386.648.471 1.047h.105c.099.481.119.947.118 1.438v1.609l-.001 1.39-.001 1.62-.001 2.89-.001 2.978v.174l-.001 3.193v1.129l-.001 1.375v.701l-.001.642v.232c0 .367-.001.725-.059 1.088h-.105l-.037.153a4.5 4.5 0 0 1-.434 1.155 2.4 2.4 0 0 0-.157.366l-.157.052-.052.157-.154.128c-.161.116-.161.116-.216.249-.071.136-.171.146-.311.199l-.052.157c-.114.056-.114.056-.262.105l-.173.059-.14.045v.105a1.4 1.4 0 0 1-.68.314l-.052.105-.209.105a34 34 0 0 0-.467.331c-.176.096-.277.106-.475.088l-.052.105c-.627.546-.627.546-1.001.599-.202.04-.272.144-.412.291-.137.065-.137.065-.262.105l-.157.052v.105a2.3 2.3 0 0 1-.376.131c-.107.021-.107.021-.199.131-.24.208-.411.314-.733.314v.157l-.137.042a3 3 0 0 0-.491.219l-.052.157c-.216.163-.216.163-.383.141l-.088-.036-.052.105c-.179.163-.288.259-.523.314a10 10 0 0 0-.209.209c-.157.052-.157.052-.314.052a1.5 1.5 0 0 0-.285.239c-.104.096-.211.132-.343.18-.107.045-.107.045-.17.131-.126.108-.243.113-.406.131v.105c-.115.088-.115.088-.268.186l-.151.098c-.162.084-.292.105-.471.134-.093.058-.093.058-.167.137-.157.144-.32.265-.497.383l-.144.096c-.133.064-.133.064-.256.048l-.087-.036-.052.105c-.339.288-.702.574-1.151.628l-.105.105c-.217.187-.412.277-.68.366l-.052.105-.095.02c-.122.025-.122.025-.21.129-.227.227-.505.414-.826.447l-.126-.024-.032.091c-.1.163-.239.242-.4.338l-.177.11a1.5 1.5 0 0 1-.49.142 7 7 0 0 0-.262.262c-.137.065-.137.065-.262.105l-.157.052v.105q-.284.116-.576.209v.105a1.3 1.3 0 0 1-.743.25 5 5 0 0 0-.487.067c-.585.091-1.165.035-1.753-.003v-.105l-.134.013c-.234-.017-.35-.097-.546-.222v-.105l-.141-.046-.171-.06-.147-.049-.115-.056-.052-.157-.111-.013a1.06 1.06 0 0 1-.543-.337c-.118-.103-.24-.104-.392-.121l-.052-.157-.114-.013c-.177-.047-.27-.131-.409-.249a3 3 0 0 0-.209-.105v-.105l-.083.038c-.192.021-.315-.081-.47-.182l-.091-.057a2.2 2.2 0 0 1-.402-.322h-.105l-.105-.157-.144-.023c-.204-.035-.322-.111-.484-.239v-.105l-.141-.046a3 3 0 0 1-.729-.347l-.149-.096-.289-.191v-.105l-.093.033c-.146.025-.184-.003-.303-.086l-.103-.071-.106-.076-.107-.074-.196-.137a2.4 2.4 0 0 0-.571-.313c-.511-.221-.511-.221-.615-.428-.132-.034-.132-.034-.262-.052v-.105l-.262-.105-.137-.049a.74.74 0 0 1-.281-.213c-.159-.138-.159-.138-.366-.157-.128-.061-.245-.136-.366-.209v-.105l-.111-.013a1.2 1.2 0 0 1-.464-.249v-.105l-.089.035c-.168.024-.232-.035-.369-.13l-.127-.086-.096-.081v-.105l-.147-.046c-.168-.053-.168-.053-.325-.158a3 3 0 0 0-.343-.154.7.7 0 0 1-.285-.213c-.188-.173-.272-.216-.523-.209a.65.65 0 0 1-.209-.262l-.114-.02a1 1 0 0 1-.54-.33c-.081-.083-.081-.083-.235-.095-.168-.028-.214-.051-.314-.183l-.052-.105-.114-.02c-.188-.042-.309-.125-.461-.242v-.105l-.091.033c-.155.025-.208-.014-.338-.099l-.11-.07c-.089-.074-.089-.074-.142-.231l-.118-.02c-.23-.052-.325-.095-.458-.294l-.114-.023c-.201-.04-.339-.133-.513-.239v-.105l-.141-.046-.174-.055-.141-.046c-.141-.069-.188-.143-.278-.268l-.105-.052c-.131-.065-.178-.143-.262-.262l-.108-.105a1 1 0 0 1-.206-.314l-.111-.164c-.097-.15-.097-.15-.097-.254a4 4 0 0 1 .301-.19l.102-.06q.65-.378 1.303-.747a94 94 0 0 0 1.314-.764 96 96 0 0 1 1.917-1.108q.41-.23.814-.472.54-.317 1.083-.63l.177-.102.328-.189.257-.15c.151-.089.286-.166.461-.194l.086.15c.259.444.536.859.855 1.263l.144.188c.667.857 1.438 1.637 2.317 2.272l.18.134c1.986 1.465 4.327 2.32 6.775 2.575l.226.026c3.29.373 6.736-.694 9.322-2.73 1.231-.993 2.635-2.341 3.276-3.825-.069-.206-.146-.225-.334-.33l-.18-.102-.097-.054-.402-.225-.206-.116a62 62 0 0 1-.94-.541l-.153-.09-.462-.27c-.897-.526-.897-.526-1.803-1.039a21 21 0 0 1-.83-.492c-.163-.108-.163-.108-.35-.143a6 6 0 0 0-.203.298 7 7 0 0 1-.82.984l-.208.221a5.6 5.6 0 0 1-1.071.852l-.164.108a6.23 6.23 0 0 1-4.503.777l-.199-.048-.102-.024c-1.658-.39-3.235-1.408-4.167-2.857-.273-.449-.489-.93-.702-1.41l-.074-.161c-.47-1.135-.461-2.766-.083-3.92l.042-.149a6.5 6.5 0 0 1 1.371-2.52l.122-.145c.877-1.013 2.1-1.667 3.384-2l.101-.029c1.638-.445 3.512-.031 4.959.794.352.211.652.479.957.752l.117.096c.513.421.891.97 1.243 1.526.245-.089.466-.213.693-.34l.127-.071a45 45 0 0 0 .91-.526q.506-.298 1.014-.59l.175-.101.534-.308a445 445 0 0 0 2.46-1.426l.477-.278a95 95 0 0 0 1.623-.96q.384-.23.779-.443.437-.24.869-.491l.097-.055a80 80 0 0 0 1.81-1.06c.255-.154.516-.298.776-.443a16 16 0 0 0 .679-.404c.274-.171.552-.321.844-.458zm.523 1.308v.419h.052v-.419z"
    fill="#38008F" />
  <path
    d="m27.052 12.035.185.063c1.265.447 2.439 1.136 3.478 1.978l.142.111c1.205.96 2.168 2.096 3.04 3.359a3 3 0 0 0 .159.205c.06.092.06.092.06.301l-.096.054c-.783.44-.783.44-1.558.891a66 66 0 0 1-.958.556c-1.506.834-1.506.834-2.973 1.734l-.118.062c-.212-.071-.251-.174-.373-.36-1.041-1.546-2.569-2.522-4.389-2.884a6.92 6.92 0 0 0-5.016 1.134 7.2 7.2 0 0 0-1.786 1.9l-.079.118c-.37.578-.61 1.22-.731 1.894-.027.134-.027.134-.079.186-.424 1.781.035 3.541.942 5.076.975 1.549 2.606 2.498 4.35 2.92 1.599.357 3.339.012 4.726-.842.951-.613 1.713-1.452 2.331-2.392.172.065.33.138.489.23l.13.075.139.081.298.172.153.089.556.318a144 144 0 0 1 1.461.845 157 157 0 0 0 1.026.594c.905.52.905.52 1.244.724l.152.091c.107.077.107.077.159.234-.051.112-.051.112-.132.24l-.089.141c-.421.645-.863 1.268-1.38 1.84l-.215.242c-.933 1.052-2.041 1.886-3.271 2.561l-.191.106-.298.165-.177.097c-.287.146-.591.253-.893.364l-.162.06c-2.23.811-4.808 1.168-7.147.609a9 9 0 0 0-.573-.109c-2.149-.387-4.237-1.496-5.88-2.914l-.12-.102c-.688-.603-1.329-1.251-1.868-1.991l-.068-.092c-.907-1.226-1.623-2.618-2.025-4.094l-.061-.195a11.8 11.8 0 0 1-.525-3.356l-.001-.145-.001-.302-.004-.45c-.016-2.766.989-5.585 2.739-7.723a13 13 0 0 0 .205-.258c.242-.311.504-.589.787-.862l.262-.262.088-.092c1.329-1.366 3.17-2.445 4.987-2.995q.118-.039.235-.08l.124-.042.233-.08a9.4 9.4 0 0 1 1.665-.38l.175-.027q.249-.038.499-.071l.123-.017a12.8 12.8 0 0 1 5.894.697z"
    fill="#FEFEFE" />
  <path
    d="m34.169 31.448.389.203.112.058c.278.146.278.146.336.263a10 10 0 0 0 .366.157q.105.051.209.105v.105l.471.157v.157l.088-.036c.171-.023.242.046.383.141l.114.052c.095.052.095.052.199.209.121.059.121.059.258.105a.95.95 0 0 1 .422.262c.114.054.114.054.242.098.699.267.699.267.805.477l.157.052v.105h.209l.157.157c.136.038.136.038.262.052v.105c.139.056.276.11.419.157l.052.105a8 8 0 0 0 .366.157v.105l.116.017c.155.038.247.091.378.183l.124.085.275.196c.186.114.366.181.572.252v.105l.209.052v.105h.209v.105h.105c-.018.285-.018.285-.052.419-.105.069-.105.069-.209.105l-.052.157-.154.128c-.161.116-.161.116-.216.249-.071.136-.171.146-.311.199l-.052.157c-.114.056-.114.056-.262.105l-.173.059-.141.046v.105a1.4 1.4 0 0 1-.68.314l-.052.105-.209.105a34 34 0 0 0-.467.331c-.176.096-.277.106-.475.088l-.052.105c-.627.546-.627.546-1.001.599-.202.04-.272.144-.412.291-.137.065-.137.065-.262.105l-.157.052v.105a2.3 2.3 0 0 1-.376.131c-.107.021-.107.021-.199.131-.24.208-.411.314-.733.314v.157l-.137.042a3 3 0 0 0-.491.219l-.052.157c-.216.163-.216.163-.383.141l-.088-.036-.052.105c-.179.163-.289.259-.523.314a10 10 0 0 0-.209.209c-.157.052-.157.052-.314.052a1.5 1.5 0 0 0-.285.239c-.104.096-.211.132-.343.18-.107.045-.107.045-.17.131-.126.108-.243.113-.406.131v.105c-.115.088-.115.088-.268.186l-.151.098a1.4 1.4 0 0 1-.471.134c-.093.058-.093.058-.167.137-.157.144-.32.265-.497.383l-.145.096c-.133.064-.133.064-.256.048l-.085-.045-.052.105c-.339.288-.702.575-1.151.628l-.105.105c-.217.187-.412.277-.68.366l-.052.105-.095.02c-.122.025-.122.025-.21.129-.227.227-.505.414-.826.447l-.126-.021-.032.091c-.1.163-.239.242-.4.337l-.177.11a1.5 1.5 0 0 1-.49.142 7 7 0 0 0-.262.262c-.137.065-.137.065-.262.105l-.157.052v.105a8 8 0 0 1-.576.209v.105a1.3 1.3 0 0 1-.743.25 5 5 0 0 0-.487.067c-.585.091-1.165.035-1.753-.003v-.105l-.134.013c-.234-.017-.35-.097-.546-.222v-.105l-.141-.046-.171-.059-.147-.049-.115-.056-.052-.157-.111-.013a1.06 1.06 0 0 1-.543-.337c-.118-.103-.24-.104-.392-.121l-.052-.157-.114-.013c-.178-.047-.27-.131-.409-.249a3 3 0 0 0-.209-.105v-.105l-.083.038c-.192.021-.315-.081-.469-.182l-.091-.057a2.2 2.2 0 0 1-.402-.322h-.105l-.105-.157-.144-.023c-.204-.035-.322-.111-.484-.239v-.105l-.141-.046a3 3 0 0 1-.729-.347l-.149-.096-.292-.189v-.105l-.093.033c-.146.024-.184-.003-.303-.086l-.103-.071-.106-.076-.107-.074-.196-.137a2.4 2.4 0 0 0-.571-.313c-.511-.221-.511-.221-.615-.428-.132-.034-.132-.034-.262-.052v-.105l-.262-.105-.137-.049a.74.74 0 0 1-.281-.213c-.159-.138-.159-.138-.366-.157-.128-.061-.245-.136-.366-.209v-.105l-.111-.013a1.2 1.2 0 0 1-.464-.249v-.105l-.089.035c-.168.024-.232-.035-.369-.13l-.127-.086-.095-.078v-.105l-.147-.046c-.167-.058-.167-.058-.324-.163a3 3 0 0 0-.343-.154.7.7 0 0 1-.284-.213c-.188-.173-.272-.216-.523-.209a.65.65 0 0 1-.209-.262l-.114-.02a1 1 0 0 1-.54-.33c-.081-.083-.081-.083-.235-.095-.167-.028-.214-.051-.314-.183l-.052-.105-.114-.02c-.188-.042-.309-.125-.461-.242v-.105l-.091.034c-.155.025-.208-.014-.338-.099l-.11-.07c-.092-.072-.092-.072-.144-.229l-.118-.02c-.23-.052-.325-.095-.458-.294l-.114-.023c-.201-.04-.339-.133-.513-.239v-.105l-.141-.046-.173-.058-.141-.046c-.141-.069-.188-.142-.278-.268l-.105-.052c-.131-.065-.178-.143-.262-.262l-.108-.105a1 1 0 0 1-.206-.314l-.111-.164c-.097-.15-.097-.15-.097-.254a4 4 0 0 1 .301-.19l.102-.06q.65-.378 1.303-.747a94 94 0 0 0 1.314-.764 96 96 0 0 1 1.917-1.108q.41-.23.814-.472.54-.317 1.083-.63l.177-.102.328-.189.257-.15c.151-.089.286-.166.461-.194l.086.15c.259.444.536.859.855 1.263l.144.188a11.5 11.5 0 0 0 2.315 2.271l.18.134c1.986 1.465 4.327 2.32 6.775 2.575l.226.026c3.29.373 6.736-.694 9.322-2.73 1.288-1.039 2.412-2.287 3.218-3.74l.059-.085h.105v-.105z"
    fill="#2D006F" />
  <path
    d="m26.713 19.465.234.209.117.096c.502.413.917.966 1.243 1.526v.105l-.229.131-.129.074c-.112.057-.112.057-.216.057v.105l-.093.045c-.352.173-.691.364-1.028.563l-.334.196-.166.097-.667.387q-.52.3-1.033.612c-.304.183-.608.363-.921.531-.545.292-1.084.593-1.608.921q-.314.19-.635.37a20 20 0 0 0-.534.313q-.331.198-.672.38-.653.358-1.29.745a18 18 0 0 1-.792.452q-.349.193-.693.392l-.134.077-.126.073-.113.065c-.102.06-.102.06-.199.164-.79-1.621-1.267-3.387-.68-5.18l.042-.149a6.5 6.5 0 0 1 1.371-2.52l.122-.145c.877-1.013 2.1-1.667 3.384-2l.101-.028c1.881-.512 4.224.059 5.682 1.337z"
    fill="#9A6AD4" />
  <path
    d="M31.238 20.93h1.099l-.049.657-.014.187-.014.182-.012.167c-.017.178-.043.356-.068.533h1.256v-.471q.013-.16.034-.321l.021-.167.023-.17.023-.175.056-.423h1.099c.014.583-.04 1.148-.105 1.727h.942v1.047H34.43v.471a5 5 0 0 1-.034.286l-.021.146-.023.147-.023.152-.056.368h.942v1.047h-1.047l-.032.41-.032.392-.022.273-.032.392-.01.124c-.024.287-.024.287-.082.345a4 4 0 0 1-.245.005l-.15-.001-.158-.001-.158-.001-.388-.003c-.011-.416.032-.82.078-1.233l.023-.205.056-.498H31.76l-.02.438c-.025.503-.077.998-.137 1.498h-1.151c.031-.653.11-1.29.209-1.936h-.942v-1.047h1.099l-.007-.226c-.001-.451.06-.896.111-1.344h-.942v-1.047h1.099l-.007-.222c0-.304.026-.604.056-.906l.014-.142c.035-.339.035-.339.094-.457"
    fill="#FCFAFD" />
  <path
    d="M32.076 23.703h1.256q-.05.554-.108 1.109l-.049.461h-1.256l.049-.667.014-.191.014-.184.012-.169c.016-.149.016-.149.068-.358z"
    fill="#3C0695" />
  <path d="M2.355 14.86h.052v5.442h-.052v-1.465H2.25V15.07h-.105v-.105h.209z" fill="#A77BE1" />
  <path d="M2.302 24.174h.052v10.465h.105l-.052.262.105.052-.052.314c-.232-.295-.274-.465-.262-.837h.052z"
    fill="#9969D2" />
  <path
    d="M23.023 11.25c.858-.022 1.739.005 2.564.262v.105l-.354-.05-.302-.043q-.327-.046-.653-.095a14 14 0 0 0-1.255-.125z"
    fill="#A485CF" />
  <path d="M31.762 26.32h1.256l-.052.68h-.052l-.052-.576h-.994v.366h-.105z" fill="#441985" />
  <path d="M2.302 32.651h.052v1.988h.105l-.052.262.105.052-.052.314c-.232-.295-.274-.465-.262-.837h.052z"
    fill="#9663D0" />
  <path d="M34.169 26.32h1.047v.052l-.942.052v.314h-.052l-.052.942-.105-.052a5.3 5.3 0 0 1 .105-1.308" fill="#522991" />
  <path
    d="m27.89 28.57.052.105c-.352.454-.74.856-1.151 1.256l-.209-.105.157-.052c.269-.203.547-.449.733-.733v-.157h.157l.052-.157h.105v-.105z"
    fill="#2B0A6E" />
  <path d="M29.983 22.657h1.099l-.052.105-.89.052a3 3 0 0 0-.082.563l-.013.186-.01.14h-.052z" fill="#EBD8FB" />
  <path d="M32.076 23.703h1.256l-.052.366-.105-.105v-.157h-1.099z" fill="#502A90" />
  <path
    d="m18.628 19.203.052.105h-.105l-.052.157h-.105l-.052.157c-.075.088-.075.088-.157.157h-.105l-.052.157c-.116.089-.233.144-.366.209l-.105-.052c.318-.34.675-.612 1.047-.89"
    fill="#A682D5" />
  <path d="M32.233 22.186h.052v.366h1.099v.105h-1.203c0-.366 0-.366.052-.471" fill="#49208C" />
  <path
    d="M21.872 18c1.484-.022 1.484-.022 2.041.105-.185.123-.263.116-.481.111l-.172-.003-.132-.004v-.105l-1.256-.052z"
    fill="#A07CCD" />
  <path
    d="m41.965 13.029.098.075c.106.083.106.083.216.134-.08.16-.216.207-.37.294l-.175.1-.135.077-.052-.157c.196-.157.196-.157.314-.157l.023-.124c.029-.137.029-.137.081-.242"
    fill="#9263D6" />
  <path
    d="m31.919 19.256.105.052c-.095.131-.095.131-.209.262h-.157l-.052.105-.157.052-.052.157-.366-.052a4.4 4.4 0 0 1 .585-.409l.166-.099z"
    fill="#421193" />
  <path
    d="M16.483 21.663c.06.203.032.303-.046.5l-.058.151-.053.134c-.053.147-.053.147-.072.262-.039.123-.093.178-.19.262.026-.328.107-.589.239-.89l.052-.123z"
    fill="#A285CD" />
  <path d="M33.488 32.442c.059.091.059.091.105.209a1.1 1.1 0 0 1-.471.576h-.105c.073-.204.168-.365.294-.54l.1-.14z"
    fill="#300F64" />
  <path
    d="m21.506 31.343.337-.003.189-.002c.154.005.154.005.206.057q.197.018.396.029l.113.007.276.016v.052l-.497.003-.141.001a4.5 4.5 0 0 1-.827-.057z"
    fill="#674499" />
  <path d="M32.913 27.262h.052v.523l.105.052-.105.105-.052.262h1.047v.052h-1.099c0-.53 0-.53.026-.762l.015-.134z"
    fill="#C4AFE1" />
  <path d="M22.497 1.93h.136c.12.006.223.026.339.059v.105h-.994c.161-.161.302-.164.52-.164" fill="#B38AE5" />
  <path d="M29.983 23.703h.942l-.052.994h-.052l-.052-.89-.785-.052z" fill="#5B3797" />
  <path
    d="m32.547 30.506.523.052v.105h.209l.105.209c-.084.037-.084.037-.209.052-.158-.073-.158-.073-.327-.177l-.171-.103-.13-.086z"
    fill="#431686" />
  <path
    d="M32.808 16.012c.131.095.131.095.262.209v.157h.157l.046.118a4 4 0 0 0 .163.353h.105l-.052.209-.081-.111a56 56 0 0 0-.652-.883z"
    fill="#9A77C7" />
  <path
    d="m20.459 30.977.105.105c.146.034.146.034.311.056.166.024.315.048.474.101v.105l.157.052a6 6 0 0 1-.778-.154l-.107-.027a5 5 0 0 1-.266-.081l-.052-.105z"
    fill="#3F1F7B" />
  <path d="m14.808 5.651.105.052v.157l-.157.052v.105l-.366.209c.046-.239.073-.341.268-.494z" fill="#A17DDE" />
  <path d="m2.198 34.43.105.209h.157l-.052.262.105.052-.052.314c-.232-.295-.274-.465-.262-.837" fill="#8558C0" />
  <path
    d="M9.157 22.186h.052c-.05.663-.05.663-.105.942h-.052L9 22.814h-.105v-.209l.157-.052c.064-.184.064-.184.105-.366"
    fill="#9875CB" />
  <path
    d="m19.256 30.349.052.157a1 1 0 0 0 .213.114l.116.055.09.04v.105c-.278-.076-.495-.208-.733-.366.157-.105.157-.105.262-.105"
    fill="#321275" />
  <path
    d="m19.727 18.576.052.105-.052.157c-.101.036-.101.036-.226.059l-.124.023-.121.022-.209.052c.126-.143.258-.216.428-.298l.143-.069z"
    fill="#9D7CCF" />
  <path d="m13.762 14.494-.471.419-.105-.052a3 3 0 0 1 .209-.366c.229-.069.229-.069.366 0" fill="#A181D8" />
  <path
    d="m9.576 32.233-.052.209-.095.016c-.119.026-.119.026-.186.118-.086.075-.086.075-.253.085l-.147-.01c.529-.419.529-.419.733-.419"
    fill="#3D0B83" />
  <path
    d="M9.419 21.087c.065.195.03.285-.023.481l-.046.172-.036.132c-.12-.211-.108-.338-.052-.576.082-.128.082-.128.157-.209"
    fill="#97c" />
  <path
    d="M10.256 30.453c.14.125.217.255.301.422l.071.139.046.12-.052.105c-.105-.052-.105-.052-.149-.16l-.04-.131-.041-.131-.032-.102h-.105z"
    fill="#9B79C5" />
  <path
    d="m17.843 29.512.082.043c.136.069.136.069.32.131.174.087.174.087.223.228l.003.121c-.275-.075-.446-.261-.628-.471z"
    fill="#361178" />
  <path
    d="m18.628 19.203.052.105h-.105l-.052.157h-.105l-.052.157-.157.105-.157-.052.229-.206.129-.116c.113-.097.113-.097.218-.15"
    fill="#9F7BCC" />
  <path d="m16.744 4.552.209.105v.105c-.406.059-.406.059-.523 0zm-.262.314v.157z" fill="#A482DA" />
  <path d="m29.25 36.419.052.105-.209.262-.262-.052v-.105z" fill="#381671" />
  <path
    d="m16.849 21.035.105.105c-.01.108-.01.108-.052.209l-.157.052c-.038.105-.038.105-.052.209h-.105c.064-.212.141-.39.262-.576"
    fill="#A47CD1" />
  <path d="m27.89 28.57.052.105-.314.419-.052-.157-.105-.052h.157l.052-.157h.105v-.105z" fill="#301372" />
  <path
    d="M33.802 17.267h.105l.112.271c.048.109.048.109.149.252-.02.114-.02.114-.052.209l-.128-.219-.072-.123a1.3 1.3 0 0 1-.115-.39"
    fill="#976FCD" />
  <path d="M29.93 28.988c.406.039.406.039.523.157l-.052.157-.471-.262z" fill="#3D1189" />
  <path d="m40.448 14.337.105.157c-.147.082-.147.082-.314.157l-.157-.052c.116-.174.175-.196.366-.262" fill="#420B98" />
  <path d="m5.442 11.093.157.052.052.157-.419.157-.052-.209.101-.049c.105-.047.105-.047.16-.108" fill="#A882DA" />
  <path d="m20.093 2.616.314.052v.157l-.262.105-.105-.157z" fill="#A57BDC" />
  <path d="M25.221 18.576c.222.069.422.154.628.262-.146.054-.202.055-.353.003l-.118-.056v-.105l-.209-.052z"
    fill="#9C7EC6" />
  <path d="m35.215 17.215.157.052a1.5 1.5 0 0 1-.523.314l-.052-.157.18-.075c.174-.063.174-.063.239-.134"
    fill="#9360D7" />
  <path d="m14.651 13.762.105.052-.209.105zm-.209.157.105.052c-.329.292-.329.292-.523.314.135-.139.257-.259.419-.366"
    fill="#F4E6FC" />
  <path d="m41.965 13.029.098.075c.106.083.106.083.216.134-.073.146-.165.156-.314.209l.052-.262-.105-.052z"
    fill="#8256BC" />
  <path d="M11.983 33.174c.131.121.131.121.262.262v.157h-.105l-.052-.105-.157-.052z" fill="#431C83" />
  <path
    d="M17.372 28.988c.092.007.092.007.209.052.209.267.209.267.209.471l-.209-.203-.118-.114c-.091-.101-.091-.101-.091-.206"
    fill="#310A71" />
  <path d="M34.012 18.052c.036.095.036.095.052.209-.075.092-.075.092-.157.157l-.157-.157z" fill="#400C97" />
  <path
    d="M8.948 9.052v.157zm-.052.262c-.092.105-.092.105-.209.209h-.209c.052-.157.052-.157.18-.222.133-.039.133-.039.237.013"
    fill="#AE89E0" />
  <path d="m18.419 11.721.366.052c-.121.121-.182.131-.347.164l-.13.027-.099.019.052-.105h.157z" fill="#9C7DCE" />
  <path d="m14.18 35.32.366.262-.105.105-.262-.105z" fill="#3E1378" />
  <path d="m26.424 29.93.209.105-.262.209-.209-.105h.209z" fill="#2F0C70" />
  <path
    d="m30.401 20.145.052.157-.052.105c-.134.033-.134.033-.262.052.013-.098.013-.098.052-.209.108-.065.108-.065.209-.105"
    fill="#471698" />
  <path d="M38.983 15.174c-.141.118-.243.203-.419.262l-.052-.157c.18-.12.261-.114.471-.105" fill="#925FD5" />
  <path d="m5.965 10.779.105.052-.052.209-.209.052c.02-.128.02-.128.052-.262z" fill="#AC89E3" />
  <path d="m36.523 9.366.262.105v.157l-.366-.052z" fill="#8A5FD6" />
  <path d="M23.494 2.093c.301.039.301.039.419.157-.197.066-.281.019-.471-.052z" fill="#A97EE2" />
  <path d="m33.488 32.442.105.209-.157.209-.157-.052z" fill="#361B73" />
  <path d="m23.756 23.965.105.052c-.225.258-.225.258-.409.278l-.115-.016c.124-.137.254-.23.419-.314" fill="#48129B" />
  <path d="m29.041 20.93.157.052-.052.157h-.366a.9.9 0 0 1 .262-.209" fill="#4A179D" />
  <path d="M5.128 11.407v.157a.6.6 0 0 1-.419 0c.129-.163.215-.173.419-.157" fill="#9278C9" />
  <path d="m2.826 35.791.366.105-.209.157-.157-.105z" fill="#9263D7" />
  <path d="m32.128 34.169.052.209c-.095.082-.095.082-.209.157l-.157-.052z" fill="#2B0362" />
  <path d="M28.151 28.047h.105c-.025.226-.091.323-.262.471l.052-.262h.105z" fill="#391174" />
  <path d="m32.547 18.994.105.052-.209.209-.262-.105c.19-.157.19-.157.366-.157" fill="#471598" />
  <path d="m2.826 13.395.105.209-.105.052-.105-.052v.209l-.105-.052a5 5 0 0 1 .105-.314z" fill="#A581E1" />
  <path d="m12.297 7.116.105.052-.052.105.209-.052-.157.209-.157-.052z" fill="#AC89E1" />
  <path d="m37.256 39.349.209.105-.262.262-.105-.052.157-.052z" fill="#22014F" />
  <path d="m10.779 31.552-.052.157-.157-.052-.052.157-.209-.052c.353-.209.353-.209.471-.209" fill="#471690" />
  <path d="m12.14 7.221.105.052v.157l-.209.105-.052-.209z" fill="#997FD7" />
  <path d="M33.122 30.663h.157l.105.209-.209.052-.105-.157z" fill="#3A0E82" />
  <path d="m22.971 24.436.052.157-.052.105-.262-.052z" fill="#430C9F" />
  <path d="M27.262 20.145c.124.013.124.013.262.052.069.108.069.108.105.209-.154-.042-.154-.042-.314-.105z"
    fill="#9B77CB" />
  <path d="M35.634 17.11v.157c-.131.088-.131.088-.262.157l-.105-.105z" fill="#450F9C" />
  <path d="M3.977 11.93c.111.049.111.049.209.105l-.052.105h-.262v-.157z" fill="#B587E2" />
  <path d="m41.599 12.506.209.105v.157z" fill="#8045C1" />
  <path d="M22.866 47.512h.314v.052h-.314z" fill="#13025A" />
  <path d="M21.82 47.512h.314v.052h-.314z" fill="#050258" />
  <path d="M22.866 1.884h.314v.052h-.314z" fill="#9D81D8" />
  <path d="M21.82 1.884h.314v.052h-.314z" fill="#9E83D6" />
  <path d="M42.698 34.849h.052v.262h-.052z" fill="#32046A" />
  <path d="m23.233 47.459.209.052z" fill="#0D0349" />
  <path d="m21.558 47.459.209.052z" fill="#0A0459" />
  <path d="m23.442 47.407.209.052z" fill="#190853" />
  <path d="m24.959 46.674.105.052h-.157z" fill="#2A054B" />
  <path d="m36.837 39.82.105.052h-.157z" fill="#10033B" />
  <path d="m6.802 39.087.157.052h-.157z" fill="#2A0364" />
  <path d="m5.547 38.355.157.052h-.157z" fill="#1F095C" />
  <path d="m2.773 36.209.105.052-.052.105z" fill="#3D0F70" />
  <path d="M42.227 36.157v.157z" fill="#220259" />
  <path d="m2.302 35.058.052.209z" fill="#5C43A6" />
  <path d="m36.785 9.523.157.052h-.157z" fill="#6F539F" />
  <path d="m34.953 8.477.157.052h-.157z" fill="#9050BA" />
  <path d="m24.907 2.669.157.052h-.157z" fill="#907BC5" />
  <path d="m19.988 2.669.105.052h-.157z" fill="#7C5FB0" />
  <path d="m23.233 1.936.209.052z" fill="#C3B6EC" />
  <path d="m23.651 47.355.157.052z" fill="#28065A" />
  <path d="m21.192 47.355.157.052z" fill="#180646" />
  <path d="m23.651 2.041.157.052z" fill="#D3B2FF" />
  <path d="m21.192 2.041.157.052z" fill="#C2A2EE" />
  <path d="m21.558 1.936.157.052z" fill="#ADA4EC" />
  <path d="m19.936 46.674.105.052z" fill="#150053" />
  <path d="m18.837 46.047.105.052z" fill="#260365" />
  <path d="m16.849 44.895.105.052z" fill="#170285" />
  <path d="m31.029 43.169.105.052z" fill="#060125" />
  <path d="m31.238 43.064.105.052z" fill="#240551" />
  <path d="m13.657 43.064.105.052z" fill="#24037B" />
  <path d="m12.558 42.436.105.052z" fill="#050637" />
  <path d="m32.494 42.331.105.052z" fill="#200059" />
  <path d="m12.401 42.331.105.052z" fill="#19025D" />
  <path d="m33.75 41.599.105.052z" fill="#2A0154" />
  <path d="m11.145 41.599.105.052z" fill="#260671" />
  <path d="m34.849 40.971.105.052z" fill="#1B0138" />
  <path d="m35.006 40.866.105.052z" fill="#290559" />
  <path d="m9.89 40.866.105.052z" fill="#2D056D" />
  <path d="m35.581 40.552.105.052z" fill="#130041" />
  <path d="m9.314 40.552.105.052z" fill="#0B04AF" />
  <path d="m8.791 40.238.105.052z" fill="#14064B" />
  <path d="m8.058 39.82.105.052z" fill="#440567" />
  <path d="m38.773 38.721.105.052z" fill="#05002D" />
  <path d="m39.924 38.041.105.052z" fill="#160058" />
  <path d="m4.971 38.041.105.052z" fill="#160056" />
  <path d="m4.971 11.355.105.052z" fill="#5542C5" />
  <path d="m5.703 10.936.105.052z" fill="#C4B9E2" />
  <path d="m6.959 10.203.105.052z" fill="#C37BDE" />
  <path d="m8.058 9.576.105.052z" fill="#8F57A4" />
  <path d="m8.791 9.157.105.052z" fill="#964DD1" />
  <path d="m35.581 8.843.105.052z" fill="#A35BB9" />
  <path d="m9.314 8.843.105.052z" fill="#FEF9FF" />
  <path d="m9.89 8.529.105.052z" fill="#B877DD" />
  <path d="m11.145 7.797.105.052z" fill="#9262BC" />
  <path d="m32.494 7.064.105.052z" fill="#AB82F5" />
  <path d="m12.401 7.064.105.052z" fill="#D790FE" />
  <path d="m12.558 6.959.105.052z" fill="#8354BF" />
  <path d="m31.238 6.331.105.052z" fill="#FFDEFF" />
  <path d="m13.657 6.331.105.052z" fill="#C2BBC2" />
  <path d="m17.581 4.081.105.052z" fill="#9C91C7" />
  <path d="m24.227 2.302.105.052z" fill="#6E49A9" />
  <path d="m20.669 2.302.105.052z" fill="#8976B8" />
</svg>